<mxfile host="app.diagrams.net" modified="2020-12-15T09:48:08.906Z" agent="5.0 (Windows NT 6.1; Win64; x64) AppleWebKit/537.36 (KHTML, like Gecko) Chrome/88.0.4287.0 Safari/537.36 Edg/88.0.673.0" etag="9V-oZV95cqCqXjk0yZsc" version="14.0.1" type="github">
  <diagram id="MHIly4aBnmgqFY_fBq3Z" name="第 1 页">
    <mxGraphModel dx="1422" dy="762" grid="1" gridSize="10" guides="1" tooltips="1" connect="1" arrows="1" fold="1" page="1" pageScale="1" pageWidth="827" pageHeight="1169" math="0" shadow="0">
      <root>
        <mxCell id="0" />
        <mxCell id="1" parent="0" />
        <mxCell id="wrivy3cgOAID5d1rXkVe-1" value="啊" style="shape=process;whiteSpace=wrap;html=1;backgroundOutline=1;" parent="1" vertex="1">
          <mxGeometry x="300" y="280" width="120" height="60" as="geometry" />
        </mxCell>
      </root>
    </mxGraphModel>
  </diagram>
</mxfile>
